<svg xmlns="http://www.w3.org/2000/svg" viewBox="0 0 24 24" width="70" height="70">
  <path d="M15.5 14h-.79l-.28-.27C15.41 12.59 16 11.11 16 9.5 16 5.91 13.09 3 9.5 3S3 5.91 3 9.5 5.91 16 9.5 16c1.61 0 3.09-.59 4.23-1.57l.27.28v.79l5 4.99L20.49 19l-4.99-5zm-6 0C7.01 14 5 11.99 5 9.5S7.01 5 9.5 5 14 7.01 14 9.5 11.99 14 9.5 14z" fill="#2563EB"/>
  <path d="M9.5 8C9.22 8 9 8.22 9 8.5V10H7.5c-.28 0-.5.22-.5.5s.22.5.5.5H9v1.5c0 .28.22.5.5.5s.5-.22.5-.5V11h1.5c.28 0 .5-.22.5-.5s-.22-.5-.5-.5H10V8.5c0-.28-.22-.5-.5-.5z" fill="#2563EB"/>
</svg>